<?xml version="1.0" encoding="UTF-8"?>
<svg width="256px" height="256px" viewBox="0 0 256 256" version="1.1" xmlns="http://www.w3.org/2000/svg" xmlns:xlink="http://www.w3.org/1999/xlink" preserveAspectRatio="xMidYMid">
    <g>
        <path d="M0,0 L256,0 L256,256 L0,256 L0,0 Z" fill="#E34F26"></path>
        <path d="M128,32 L224,32 L224,224 L128,224 L128,32 Z" fill="#E34F26"></path>
        <path d="M32,32 L128,32 L128,224 L32,224 L32,32 Z" fill="#E34F26"></path>
        <path d="M64,64 L192,64 L192,192 L64,192 L64,64 Z" fill="#FFFFFF"></path>
        <path d="M96,96 L160,96 L160,160 L96,160 L96,96 Z" fill="#E34F26"></path>
        <path d="M96,96 L160,96 L160,128 L96,128 L96,96 Z" fill="#FFFFFF"></path>
    </g>
</svg> 