<?xml version="1.0" encoding="UTF-8"?>
<svg width="256px" height="256px" viewBox="0 0 256 256" version="1.1" xmlns="http://www.w3.org/2000/svg" preserveAspectRatio="xMidYMid">
    <g>
        <path d="M250.715745,105.970773 C247.39295,103.33715 239.106798,102.350381 233.02089,102.350381 C231.497391,102.350381 229.748723,102.350381 228.451006,102.575546 L226.702338,102.800712 C225.854706,95.2277134 221.093623,89.3483117 214.782302,85.0651865 C207.145651,79.8609796 197.398401,78.4243713 187.87631,80.7477846 C186.578593,71.4509095 179.16543,64.1030435 169.418181,62.1293354 C158.344601,59.8059221 145.84413,65.9149394 141.533217,76.6758528 C139.109394,82.7848701 139.559649,89.7986666 142.38067,95.6780683 C131.757174,95.6780683 121.359016,98.9020445 113.947444,104.78433 C109.186362,108.683765 105.638398,113.662806 103.43966,119.542107 C101.465908,115.411654 98.1431126,111.737053 93.8321996,109.413639 C86.1955486,105.514205 77.0087231,105.970773 69.3720721,110.253898 C64.8358036,112.802357 61.5129176,117.330482 60.2152006,122.540853 C55.0036587,121.554084 49.5670902,121.779249 44.3555483,123.527745 C31.8550777,127.427179 23.3435255,139.514853 25.5422629,152.564892 C27.0657617,162.087983 34.9535874,169.43585 44.7007029,171.860051 C45.9984198,172.085217 47.2961368,172.310382 48.8196356,172.310382 L243.169816,172.310382 C244.693314,172.310382 246.216813,172.085217 247.739721,171.860051 C254.72678,170.198108 260.163348,165.219067 262.812386,158.772131 C265.461424,152.339727 264.614382,145.217626 260.613724,139.514853 C257.065759,134.760977 253.967873,131.311836 250.715745,105.970773 Z" fill="#2396ED"></path>
        <path d="M85.5731168,123.752911 L102.817228,123.752911 L102.817228,107.246944 L85.5731168,107.246944 L85.5731168,123.752911 Z M88.4475603,110.929632 L99.9427845,110.929632 L99.9427845,120.070223 L88.4475603,120.070223 L88.4475603,110.929632 Z" fill="#FFFFFF"></path>
        <path d="M104.340726,123.752911 L121.584837,123.752911 L121.584837,107.246944 L104.340726,107.246944 L104.340726,123.752911 Z M107.21517,110.929632 L118.710394,110.929632 L118.710394,120.070223 L107.21517,120.070223 L107.21517,110.929632 Z" fill="#FFFFFF"></path>
        <path d="M123.108336,123.752911 L140.352447,123.752911 L140.352447,107.246944 L123.108336,107.246944 L123.108336,123.752911 Z M125.98278,110.929632 L137.478004,110.929632 L137.478004,120.070223 L125.98278,120.070223 L125.98278,110.929632 Z" fill="#FFFFFF"></path>
        <path d="M141.875946,123.752911 L159.120057,123.752911 L159.120057,107.246944 L141.875946,107.246944 L141.875946,123.752911 Z M144.75039,110.929632 L156.245614,110.929632 L156.245614,120.070223 L144.75039,120.070223 L144.75039,110.929632 Z" fill="#FFFFFF"></path>
        <path d="M85.5731168,105.048183 L102.817228,105.048183 L102.817228,88.5422158 L85.5731168,88.5422158 L85.5731168,105.048183 Z M88.4475603,92.2249041 L99.9427845,92.2249041 L99.9427845,101.365495 L88.4475603,101.365495 L88.4475603,92.2249041 Z" fill="#FFFFFF"></path>
        <path d="M104.340726,105.048183 L121.584837,105.048183 L121.584837,88.5422158 L104.340726,88.5422158 L104.340726,105.048183 Z M107.21517,92.2249041 L118.710394,92.2249041 L118.710394,101.365495 L107.21517,101.365495 L107.21517,92.2249041 Z" fill="#FFFFFF"></path>
        <path d="M123.108336,105.048183 L140.352447,105.048183 L140.352447,88.5422158 L123.108336,88.5422158 L123.108336,105.048183 Z M125.98278,92.2249041 L137.478004,92.2249041 L137.478004,101.365495 L125.98278,101.365495 L125.98278,92.2249041 Z" fill="#FFFFFF"></path>
        <path d="M104.340726,86.3434551 L121.584837,86.3434551 L121.584837,69.8374881 L104.340726,69.8374881 L104.340726,86.3434551 Z M107.21517,73.5201764 L118.710394,73.5201764 L118.710394,82.6607668 L107.21517,82.6607668 L107.21517,73.5201764 Z" fill="#FFFFFF"></path>
        <path d="M123.108336,86.3434551 L140.352447,86.3434551 L140.352447,69.8374881 L123.108336,69.8374881 L123.108336,86.3434551 Z M125.98278,73.5201764 L137.478004,73.5201764 L137.478004,82.6607668 L125.98278,82.6607668 L125.98278,73.5201764 Z" fill="#FFFFFF"></path>
    </g>
</svg>
 