<?xml version="1.0" encoding="UTF-8"?>
<svg width="256px" height="256px" viewBox="0 0 256 256" version="1.1" xmlns="http://www.w3.org/2000/svg" preserveAspectRatio="xMidYMid">
    <g>
        <path d="M241.871,26.691 L14.129,26.691 C6.324,26.691 0,33.015 0,40.82 L0,206.067 C0,213.872 6.324,220.196 14.129,220.196 L241.871,220.196 C249.676,220.196 256,213.872 256,206.067 L256,40.82 C256,33.015 249.676,26.691 241.871,26.691" fill="#512BD4"></path>
        <path d="M57.94,188.636 L44.61,188.636 L44.61,74.705 L57.94,74.705 L57.94,188.636 Z M197.087,74.705 L197.087,188.636 L183.757,188.636 L183.757,74.705 L197.087,74.705 Z M120.513,188.636 L107.183,188.636 L107.183,74.705 L120.513,74.705 L120.513,188.636 Z" fill="#FFFFFF"></path>
    </g>
</svg> 