<?xml version="1.0" encoding="UTF-8"?>
<svg width="256px" height="256px" viewBox="0 0 256 256" version="1.1" xmlns="http://www.w3.org/2000/svg" preserveAspectRatio="xMidYMid">
    <g>
        <path d="M201.816,36.413 L201.816,36.413 L201.816,36.413 C201.816,36.413 201.816,36.413 201.816,36.413 M201.816,36.413 L201.816,36.413 C201.816,36.413 201.816,36.413 201.816,36.413 M201.816,36.413 L201.816,36.413 C201.816,36.413 201.816,36.413 201.816,36.413" fill="#231F20"></path>
        <path d="M128,0 C57.308,0 0,57.308 0,128 C0,198.692 57.308,256 128,256 C198.692,256 256,198.692 256,128 C256,57.308 198.692,0 128,0 M128,240 C66.231,240 16,189.769 16,128 C16,66.231 66.231,16 128,16 C189.769,16 240,66.231 240,128 C240,189.769 189.769,240 128,240" fill="#231F20"></path>
        <path d="M146.034,110.544 C146.034,110.544 146.034,110.544 146.034,110.544 M146.034,110.544 C146.034,110.544 146.034,110.544 146.034,110.544 M146.034,110.544 C146.034,110.544 146.034,110.544 146.034,110.544" fill="#231F20"></path>
        <path d="M136.373,129.837 L136.373,129.837 L136.373,129.837 C136.373,129.837 136.373,129.837 136.373,129.837 M136.373,129.837 L136.373,129.837 C136.373,129.837 136.373,129.837 136.373,129.837 M136.373,129.837 L136.373,129.837 C136.373,129.837 136.373,129.837 136.373,129.837" fill="#231F20"></path>
        <path d="M128,86.957 L89.957,86.957 L89.957,169.043 L128,169.043 L128,86.957 Z M112.696,153.739 L105.261,153.739 L105.261,102.261 L112.696,102.261 L112.696,153.739 Z" fill="#231F20"></path>
        <path d="M166.043,86.957 L128,86.957 L128,169.043 L166.043,169.043 L166.043,86.957 Z M150.739,153.739 L143.304,153.739 L143.304,102.261 L150.739,102.261 L150.739,153.739 Z" fill="#231F20"></path>
    </g>
</svg> 