<?xml version="1.0" encoding="UTF-8"?>
<svg width="256px" height="256px" viewBox="0 0 256 256" version="1.1" xmlns="http://www.w3.org/2000/svg" preserveAspectRatio="xMidYMid">
    <g>
        <path d="M223.774631,73.2018243 C223.584739,72.8118526 223.214901,72.5722234 222.794994,72.5722234 C222.375087,72.5722234 178.735774,72.9517085 178.735774,72.9517085 C178.735774,72.9517085 144.913716,39.8012875 142.586346,37.4635008 C140.2494,35.1257141 136.497172,35.9837922 135.458589,36.2639079 C135.458589,36.2639079 126.303059,38.7520371 108.804123,44.5767693 C107.86498,41.5894475 106.466065,38.7520371 104.518463,36.1634214 C99.4821143,29.5781248 92.5202246,26.1470291 84.2714901,26.1470291 C84.1615903,26.1470291 83.9913042,26.1470291 83.8814044,26.1470291 C83.2220476,23.6150132 82.3731828,21.1268839 81.2346999,18.7452105 C76.4781649,9.71827766 69.1770612,4.51501321 59.5617452,4.27435088 C59.4518454,4.27435088 59.3419456,4.27435088 59.2320458,4.27435088 C40.8435228,4.27435088 22.5648997,27.6638454 16.5203465,68.5367626 L0,75.9001777 L42.1918391,238.891783 L205.706783,238.891783 L256,83.5997873 L223.774631,73.2018243 L223.774631,73.2018243 Z M156.397482,45.2745049 L134.529446,51.0992371 C134.529446,51.0992371 134.419546,50.9987506 134.309646,50.8982641 C130.886986,46.0412425 127.024758,42.5197333 122.927409,40.1380599 C138.723921,35.9837922 152.535254,33.5395496 156.397482,45.2745049 L156.397482,45.2745049 Z M84.2714901,31.4085713 C89.0280251,31.4085713 92.7802529,34.5572356 95.2177855,39.1035519 C89.8768899,41.0403388 84.2714901,43.1813392 78.5562037,45.5630126 C80.7237602,36.9310129 83.2220476,31.4085713 84.2714901,31.4085713 L84.2714901,31.4085713 Z M59.5617452,9.57727459 C66.0836426,9.71827766 71.1199916,13.7229959 74.6523328,20.7473988 C71.6694617,21.9746881 68.6865907,23.2458641 65.7037197,24.6164378 C63.0455457,17.0741516 60.7681026,12.1623526 59.5617452,9.57727459 L59.5617452,9.57727459 Z M58.0827156,238.891783 L21.9055429,83.5997873 C21.9055429,83.5997873 52.5768127,74.1948053 89.7669901,62.5005426 C88.3977533,64.9447852 87.1913959,67.5206878 86.2327444,70.2470769 C65.4839334,77.5970636 49.9186387,83.5997873 49.9186387,83.5997873 L77.8968469,238.891783 L58.0827156,238.891783 L58.0827156,238.891783 Z M93.6291177,238.891783 L65.7037197,83.5997873 C65.7037197,83.5997873 108.914023,71.0146684 135.458589,62.5005426 C133.04052,66.0228383 130.996819,69.8339745 129.351093,73.9434466 C112.611057,79.6918505 100.547498,84.2975229 100.547498,84.2975229 L128.472827,238.891783 L93.6291177,238.891783 L93.6291177,238.891783 Z M200.221533,238.891783 L144.05375,83.5997873 L178.735774,77.5970636 L219.582503,83.5997873 L200.221533,238.891783 L200.221533,238.891783 Z" fill="#95BF47"></path>
    </g>
</svg> 