<?xml version="1.0" encoding="UTF-8"?>
<svg width="256px" height="256px" viewBox="0 0 256 256" version="1.1" xmlns="http://www.w3.org/2000/svg" xmlns:xlink="http://www.w3.org/1999/xlink" preserveAspectRatio="xMidYMid">
    <g>
        <path d="M128,0 C57.307,0 0,57.307 0,128 C0,198.693 57.307,256 128,256 C198.693,256 256,198.693 256,128 C256,57.307 198.693,0 128,0 Z" fill="#CC2927"></path>
        <path d="M128,32 C83.817,32 48,67.817 48,112 C48,156.183 83.817,192 128,192 C172.183,192 208,156.183 208,112 C208,67.817 172.183,32 128,32 Z" fill="#FFFFFF"></path>
        <path d="M128,64 C100.268,64 80,84.268 80,112 C80,139.732 100.268,160 128,160 C155.732,160 176,139.732 176,112 C176,84.268 155.732,64 128,64 Z" fill="#CC2927"></path>
        <path d="M128,96 C116.954,96 108,104.954 108,116 C108,127.046 116.954,136 128,136 C139.046,136 148,127.046 148,116 C148,104.954 139.046,96 128,96 Z" fill="#FFFFFF"></path>
    </g>
</svg> 